# xmcd CD database file
#
# Track frame offsets:
#	150
#	22525
#	63312
#	96170
#	120525
#	150747
#	181002
#	213585
#	230045
#	257105
#
# Disc length: 3829 seconds
#
# Revision: 0
# Processed by: cddbd v1.5.1PL0 Copyright (c) Steve Scherf et al.
# Submitted via: CDex 1.51
#
DISCID=7b0ef30a
DTITLE=Down to the bone - From Manhattan to Staten
DYEAR=1996
DGENRE=Jazz
TTITLE0=Yo Mama's So Phat
TTITLE1=Staten Island Groove
TTITLE2=Brooklyn Heights
TTITLE3=Savour The Flavour
TTITLE4=Muesli Brown
TTITLE5=Touch Of Voodoo
TTITLE6=17 Mile Drive
TTITLE7=Carlito's Way
TTITLE8=3 Days In Manhattan
TTITLE9=On The Corner Of Darcy Street
EXTD=YEAR: 1996
EXTT0=
EXTT1=
EXTT2=
EXTT3=
EXTT4=
EXTT5=
EXTT6=
EXTT7=
EXTT8=
EXTT9=
PLAYORDER=
